# xmcd
# Copyright (C) 1995-1998 Ti Kan
#
# Track frame offsets:
#       150
#       15496
#       31969
#       48278
#       69630
#       96302
#       117310
#       146907
#       199774
#       218526
#       260188
#       301664
#
# Disc length: 4362 seconds
#
# Revision: 0
# Processed by: cddbd v1.5.2PL0 Copyright (c) Steve Scherf et al.
# Submitted via: CD-Import v1.0
#
DISCID=aa11080c
DTITLE=Frank Goosen - Radio Heimat
DYEAR=10
DGENRE=
TTITLE0=1. Der Currywurst-Vorfall
TTITLE1=2. Onkel Josef Und Tante Henni: Staying Power
TTITLE2=3. Saubere Unterwäsche
TTITLE3=4. Helden
TTITLE4=5. Der Laberfürst
TTITLE5=6. Alte Leute
TTITLE6=7. Vonne Alleestrasse Weg
TTITLE7=8. Rathauskind
TTITLE8=9. Wenn Ali Boxte
TTITLE9=10. Steh Auf, Du Mädchen
TTITLE10=11. Fast Berühmt
TTITLE11=12. Blagen According To Theo
EXTD=
EXTT0=
EXTT1=
EXTT2=
EXTT3=
EXTT4=
EXTT5=
EXTT6=
EXTT7=
EXTT8=
EXTT9=
EXTT10=
EXTT11=
PLAYORDER=
